<svg width="80" height="70" viewBox="0 0 80 70" fill="none" xmlns="http://www.w3.org/2000/svg">
<path d="M79.2458 22.2615C79.2458 16.499 77.0565 11.0958 73.0809 7.04733C69.0832 2.97625 63.7215 0.734375 57.9834 0.734375C50.6748 0.734375 43.9625 4.39812 40.0001 10.424C36.0376 4.39796 29.3253 0.734375 22.0167 0.734375C16.2786 0.734375 10.9169 2.97656 6.91926 7.04749C2.94364 11.0961 0.754272 16.4992 0.754272 22.2617C0.754272 27.6626 2.31724 30.8193 3.57317 33.356L3.70974 33.6321C8.90988 44.1666 37.9844 68.3311 39.2194 69.3547L39.9979 70L40.7783 69.3566C40.8073 69.3325 43.5497 67.0696 47.455 63.6821C51.094 66.9283 53.9875 69.3289 54.0185 69.3545L54.7971 69.9999L55.5775 69.3564C56.3414 68.7266 74.323 53.8561 77.3999 47.3624L77.4855 47.1823C78.2283 45.6196 79.2457 43.4798 79.2457 40.2246C79.2457 37.4002 78.4193 34.7268 76.8529 32.4431C77.9052 30.1868 79.2458 26.9331 79.2458 22.2615ZM75.2757 46.1316L75.1887 46.3148C72.6841 51.6007 58.3253 63.8575 54.8009 66.8175C53.5929 65.7988 51.1107 63.6825 48.2853 61.1408C44.0072 57.2925 40.5754 53.9408 38.1515 51.2588C37.4783 50.5138 36.8826 49.8204 36.3684 49.1824C36.1626 48.9272 35.97 48.681 35.7905 48.4438C35.1622 47.6135 34.6959 46.8946 34.4012 46.2973L34.3503 46.1943C33.6358 44.7482 32.8258 43.1094 32.8258 40.2251C32.8258 33.9573 37.653 29.0476 43.8153 29.0476C47.9817 29.0476 51.7754 31.3415 53.7159 35.0338L54.799 37.0946L55.8821 35.0338C57.8226 31.3413 61.6163 29.0476 65.7827 29.0476C69.2132 29.0476 72.3793 30.6049 74.4688 33.3199C75.9929 35.3002 76.7983 37.6879 76.7983 40.2251C76.7988 42.9277 75.9898 44.6299 75.2757 46.1316ZM75.1052 30.3637C75.1001 30.3587 75.0943 30.3538 75.0891 30.3487C74.9541 30.2179 74.816 30.0907 74.676 29.9663C74.6516 29.9446 74.6276 29.9226 74.603 29.901C74.4626 29.7779 74.3198 29.6581 74.1749 29.5413C74.1462 29.5184 74.1176 29.4956 74.0887 29.4726C73.9401 29.3548 73.7896 29.2396 73.6365 29.1285C73.623 29.1187 73.6094 29.1096 73.5959 29.0998C73.4476 28.9931 73.2971 28.8899 73.1449 28.7898C73.1215 28.7743 73.0982 28.7584 73.0748 28.7431C72.9187 28.6417 72.7602 28.544 72.6001 28.4495C72.5687 28.4309 72.5369 28.4124 72.5052 28.394C72.3432 28.3001 72.1798 28.209 72.014 28.1221C71.9943 28.1117 71.974 28.102 71.9543 28.0917C71.7938 28.0085 71.6316 27.9287 71.4679 27.8523C71.4469 27.8424 71.4263 27.8323 71.4054 27.8226C71.2355 27.7443 71.0637 27.6704 70.8904 27.5995C70.8566 27.5856 70.8227 27.5718 70.7888 27.5582C70.6159 27.489 70.4416 27.4228 70.2657 27.3609C70.2402 27.352 70.2145 27.3435 70.1888 27.3346C70.017 27.2753 69.8437 27.2192 69.669 27.1667C69.6518 27.1615 69.6349 27.1559 69.6177 27.1509C69.4365 27.0974 69.2535 27.0484 69.0695 27.0026C69.0338 26.9939 68.9985 26.9848 68.9629 26.9762C68.7815 26.9324 68.599 26.8921 68.4151 26.856C68.3841 26.8499 68.3529 26.8445 68.3218 26.8385C68.1379 26.8037 67.953 26.7718 67.7671 26.7446C67.7566 26.7432 67.7462 26.7412 67.7359 26.7398C67.5448 26.7123 67.3526 26.6899 67.1596 26.6704C67.1232 26.6668 67.0868 26.6629 67.0506 26.6595C66.8626 26.642 66.6737 26.6284 66.484 26.6187C66.4491 26.617 66.4141 26.6157 66.3793 26.6143C66.1815 26.6059 65.9829 26.6001 65.7834 26.6001C61.394 26.6001 57.3446 28.6879 54.7995 32.1601C52.2545 28.6881 48.205 26.6001 43.8156 26.6001C43.1345 26.6001 42.4619 26.6499 41.8019 26.7482C38.9417 27.1735 36.3183 28.5042 34.2666 30.5998C31.7597 33.1602 30.3791 36.5784 30.3791 40.2246C30.3791 43.6805 31.3647 45.6752 32.1567 47.278L32.2072 47.3801C32.2539 47.4748 32.3039 47.5715 32.3567 47.6699C32.3737 47.7013 32.3927 47.7343 32.4102 47.7662C32.4475 47.8341 32.4847 47.9019 32.525 47.9718C32.548 48.0116 32.5731 48.0529 32.597 48.0933C32.6347 48.1571 32.6719 48.2205 32.7119 48.2858C32.7394 48.3307 32.7689 48.3769 32.7976 48.4224C32.837 48.4851 32.8758 48.5474 32.9172 48.6113C32.9486 48.6599 32.9823 48.7099 33.0148 48.7593C33.0564 48.8222 33.0978 48.8851 33.1416 48.9493C33.1762 49.0005 33.213 49.0529 33.2489 49.1049C33.2934 49.1691 33.3378 49.2335 33.3844 49.299C33.4225 49.3529 33.4623 49.4077 33.5019 49.4626C33.5492 49.5282 33.5966 49.5937 33.6456 49.6605C33.6872 49.7171 33.7305 49.7747 33.7734 49.8321C33.8236 49.899 33.8736 49.966 33.9255 50.0341C33.9703 50.0932 34.0167 50.1529 34.063 50.2127C34.1158 50.2811 34.1691 50.3496 34.2234 50.4191C34.2719 50.4808 34.3217 50.5433 34.3716 50.6058C34.427 50.6755 34.4831 50.7455 34.5405 50.8163C34.592 50.8801 34.6445 50.9444 34.6973 51.009C34.7561 51.0805 34.8155 51.1527 34.8758 51.2254C34.9305 51.2913 34.9859 51.3576 35.042 51.4244C35.1039 51.498 35.1667 51.5722 35.2301 51.6469C35.2878 51.7146 35.3458 51.7827 35.4047 51.8511C35.4695 51.9265 35.5353 52.0026 35.6019 52.0791C35.6628 52.1493 35.7242 52.2197 35.7867 52.2908C35.8542 52.3679 35.9233 52.4457 35.9925 52.5237C36.0564 52.5957 36.1206 52.6679 36.1859 52.741C36.2567 52.8199 36.329 52.8999 36.4014 52.98C36.4686 53.0543 36.5358 53.1285 36.6045 53.2036C36.6781 53.2843 36.7533 53.3658 36.8286 53.4474C36.899 53.524 36.9692 53.6001 37.0409 53.6774C37.1173 53.7596 37.1956 53.843 37.2736 53.9261C37.3475 54.005 37.4209 54.0836 37.4962 54.1635C37.5751 54.2471 37.6561 54.3318 37.7365 54.4163C37.8139 54.4975 37.8903 54.5783 37.9692 54.6604C38.0514 54.746 38.1358 54.8332 38.2195 54.9197C38.2997 55.0025 38.3787 55.085 38.4603 55.1688C38.5467 55.2577 38.6358 55.3482 38.7239 55.4382C38.8054 55.5214 38.8859 55.604 38.9689 55.6882C39.0619 55.7824 39.1575 55.8783 39.2523 55.9738C39.3337 56.0558 39.4139 56.1369 39.4967 56.2197C39.5955 56.3186 39.697 56.4193 39.7976 56.5193C39.9584 56.6791 40.1215 56.8407 40.2872 57.0035C40.3898 57.1046 40.4914 57.2047 40.5958 57.3071C40.6889 57.3982 40.7848 57.491 40.8794 57.583C40.9787 57.6796 41.0769 57.7755 41.1778 57.873C41.277 57.9691 41.3789 58.0666 41.4798 58.1638C41.5787 58.2589 41.6765 58.3533 41.7769 58.4494C41.8801 58.5483 41.9858 58.6486 42.0906 58.7485C42.192 58.8452 42.2929 58.9413 42.3958 59.0388C42.5006 59.1382 42.6076 59.2389 42.714 59.3394C42.82 59.4393 42.9253 59.5388 43.0326 59.6396C43.1414 59.7418 43.2522 59.845 43.3625 59.9482C43.4695 60.0482 43.5761 60.1479 43.6843 60.2486C43.7989 60.3552 43.9153 60.463 44.0315 60.5707C44.1392 60.6705 44.2468 60.7702 44.3561 60.8708C44.4734 60.9789 44.5923 61.0883 44.7112 61.1975C44.8228 61.3002 44.9345 61.4027 45.0476 61.5061C45.1665 61.6149 45.287 61.7247 45.4075 61.8346C45.4795 61.9003 45.5503 61.965 45.6229 62.0313C43.0726 64.2405 41.0486 65.9444 40.0025 66.8185C35.2644 62.8368 10.4191 41.6959 5.90395 32.5485L5.76614 32.2699C4.5638 29.8418 3.2013 27.0898 3.2013 22.2614C3.2013 11.5622 11.466 3.18109 22.0167 3.18109C29.1289 3.18109 35.6047 7.09655 38.917 13.3992L40.0001 15.4601L41.0833 13.3992C44.3956 7.09655 50.8714 3.18109 57.9835 3.18109C68.5343 3.18109 76.799 11.5622 76.799 22.2614C76.7988 25.7779 75.9637 28.3618 75.1052 30.3637Z" fill="white"/>
</svg>
