<svg width="11" height="17" viewBox="0 0 11 17" fill="none" xmlns="http://www.w3.org/2000/svg">
<path d="M9.883 8.26746C9.98716 8.37162 10.0392 8.49142 10.0392 8.62683C10.0392 8.76225 9.98716 8.88204 9.883 8.98621L2.60175 16.2675C2.49758 16.3716 2.37779 16.4237 2.24237 16.4237C2.10695 16.4237 1.98716 16.3716 1.883 16.2675L1.10175 15.4862C0.997579 15.382 0.945496 15.2622 0.945496 15.1268C0.945496 14.9914 0.997579 14.8716 1.10175 14.7675L7.24237 8.62683L1.10175 2.48621C0.997579 2.38204 0.945496 2.26225 0.945496 2.12683C0.945496 1.99142 0.997579 1.87162 1.10175 1.76746L1.883 0.986207C1.98716 0.88204 2.10695 0.829956 2.24237 0.829956C2.37779 0.829956 2.49758 0.88204 2.60175 0.986207L9.883 8.26746Z" fill="white"/>
</svg>
